<svg width="209.99999999999997" height="104.99999999999999" xmlns="http://www.w3.org/2000/svg" xmlns:undefined="http://www.inkscape.org/namespaces/inkscape" xmlns:xlink="http://www.w3.org/1999/xlink" version="1.1">
 <defs id="defs2">
  <linearGradient id="linearGradient849" >
   <stop stop-color="#f9f9f9" id="stop845" offset="0"/>
   <stop stop-color="#e6e6e6" id="stop847" offset="1"/>
  </linearGradient>
  <linearGradient id="linearGradient841" >
   <stop stop-color="#4c4c4c" id="stop837" offset="0"/>
   <stop stop-opacity="0.97899" stop-color="#1a1a1a" id="stop839" offset="1"/>
  </linearGradient>
  <radialGradient gradientTransform="matrix(1,0,0,1,0,-47.79438400268555)" gradientUnits="userSpaceOnUse" r="57.45238" fy="141.56799" fx="-15.66415" cy="141.56799" cx="-15.66415" id="radialGradient843" xlink:href="#linearGradient841" />
  <radialGradient gradientTransform="matrix(1,0,0,1,0,-47.79438400268555)" gradientUnits="userSpaceOnUse" r="16.31622" fy="141.56799" fx="-15.66415" cy="141.56799" cx="-15.66415" id="radialGradient851" xlink:href="#linearGradient849" />
 </defs>
 <metadata id="metadata5">image/svg+xml</metadata>
 <g>
  <title>Layer 1</title>
  <g id="layer1"  >
   <g transform="matrix(1.8203, 0, 0, 1.8203, 133.513, -65.6959)" id="g858">
    <circle stroke-dashoffset="0" stroke-miterlimit="4" stroke-linejoin="round" stroke-linecap="round" stroke-width="3.361" fill="url(#radialGradient843)" id="path815" cx="-15.66415" cy="93.77361" r="57.45238"/>
    <path stroke-miterlimit="4" stroke-width="0.152" stroke="#414141" fill-rule="evenodd" fill="none"  id="path817"        d="m-15.93938,93.75207c0.06828,0.0683 -0.05836,0.12573 -0.11349,0.11349c-0.14941,-0.0332 -0.17343,-0.22456 -0.11349,-0.34048c0.10722,-0.20735 0.38565,-0.23164 0.56745,-0.11349c0.26681,0.1734 0.29159,0.54894 0.1135,0.79444c-0.23737,0.32723 -0.71299,0.35226 -1.02143,0.11349c-0.38813,-0.30045 -0.4133,-0.87741 -0.11349,-1.2484c0.36312,-0.44932 1.04206,-0.47458 1.47539,-0.11349c0.51067,0.42553 0.53599,1.20682 0.11349,1.70237c-0.48779,0.57214 -1.37167,0.59749 -1.92935,0.11349c-0.63368,-0.54995 -0.65906,-1.53658 -0.11349,-2.15634c0.61204,-0.69527 1.70154,-0.72067 2.38332,-0.11349c0.7569,0.67409 0.78232,1.86653 0.11349,2.6103c-0.7361,0.81857 -2.03155,0.844 -2.83729,0.1135c-0.88025,-0.79807 -0.90569,-2.19659 -0.11349,-3.06427c0.86003,-0.94197 2.36164,-0.96741 3.29125,-0.11349c1.00369,0.92196 1.02914,2.5267 0.11349,3.51823c-0.98388,1.06542 -2.69177,1.09088 -3.74521,0.11349c-1.12717,-1.04579 -1.15263,-2.85686 -0.11349,-3.9722c1.10769,-1.18892 3.02196,-1.21438 4.19918,-0.11349c1.25068,1.16959 1.27614,3.18706 0.11349,4.42617c-1.23147,1.31244 -3.35217,1.33791 -4.65315,0.11349c-1.37421,-1.29335 -1.39968,-3.51728 -0.11349,-4.88013c1.35523,-1.43599 3.68239,-1.46147 5.10711,-0.11349c1.49778,1.41709 1.52325,3.84751 0.11349,5.33409c-1.47895,1.55956 -4.01263,1.58503 -5.56107,0.11349c-1.62135,-1.54082 -1.64682,-4.17776 -0.11349,-5.78806c1.60268,-1.68313 4.34288,-1.70861 6.01504,-0.11349c1.74492,1.66454 1.7704,4.50802 0.11349,6.24203c-1.72639,1.80671 -4.67315,1.83219 -6.46901,0.11349c-1.86851,-1.78824 -1.89399,-4.83829 -0.11349,-6.69599c1.85009,-1.93031 5.00342,-1.9558 6.92297,-0.11349c1.99211,1.91193 2.0176,5.16855 0.11349,7.14995c-1.97378,2.05391 -5.33369,2.0794 -7.37693,0.11349c-2.11572,-2.03563 -2.1412,-5.49883 -0.11349,-7.60392c2.09747,-2.17751 5.66397,-2.203 7.8309,-0.11349c2.23932,2.15931 2.2648,5.82912 0.11349,8.05789c-2.22115,2.30112 -5.99426,2.32661 -8.28487,0.11349c-2.36293,-2.283 -2.38842,-6.15941 -0.11349,-8.51186c2.34483,-2.42473 6.32455,-2.45022 8.73884,-0.11348c2.48654,2.40667 2.51203,6.48969 0.11348,8.96581c-2.4685,2.54836 -6.65484,2.57384 -9.1928,0.11349c-2.61016,-2.53034 -2.63565,-6.81998 -0.11349,-9.41978c2.59219,-2.67197 6.98514,-2.69746 9.64677,-0.11349c2.73378,2.65402 2.75927,7.15028 0.11349,9.87375c-2.71585,2.79559 -7.31543,2.82108 -10.10073,0.11349c-2.85741,-2.77769 -2.8829,-7.48058 -0.11349,-10.32772c2.83952,-2.91921 7.64573,-2.9447 10.5547,-0.11348c2.98103,2.90135 3.00651,7.81088 0.11348,10.78167c-2.96318,3.04285 -7.97603,3.06834 -11.00866,0.11349c-3.10465,-3.02502 -3.13014,-8.14118 -0.11349,-11.23564c3.08686,-3.16647 8.30634,-3.19196 11.46263,-0.11349c3.22829,3.14868 3.25377,8.47148 0.11349,11.68961c-3.21051,3.2901 -8.63664,3.31559 -11.91659,0.11349c-3.35191,-3.27235 -3.3774,-8.80179 -0.11349,-12.14358c3.33417,-3.41372 8.96694,-3.43921 12.37056,-0.11349c3.47554,3.39601 3.50103,9.1321 0.11349,12.59755c-3.45784,3.53735 -9.29725,3.56284 -12.82453,0.11348c-3.59917,-3.51966 -3.62466,-9.4624 -0.11349,-13.0515c3.5815,-3.66099 9.62756,-3.68648 13.27849,-0.11349c3.72281,3.64332 3.7483,9.79271 0.11349,13.50547c-3.70515,3.78462 -9.95786,3.81011 -13.73245,0.11349c-3.84644,-3.76698 -3.87193,-10.12302 -0.11349,-13.95944c3.82881,-3.90825 10.28817,-3.93374 14.18642,-0.11349c3.97007,3.89064 3.99556,10.45333 0.11349,14.41341c-3.95247,4.03188 -10.61848,4.05737 -14.64039,0.11348c-4.0937,-4.01429 -4.11919,-10.78363 -0.11349,-14.86736c4.07613,-4.15553 10.94879,-4.18102 15.09435,-0.11349c4.21734,4.13795 4.24283,11.11394 0.11349,15.32133c-4.19978,4.27916 -11.2791,4.30465 -15.54832,0.11349c-4.34097,-4.26161 -4.36646,-11.44426 -0.11348,-15.7753c4.32343,-4.40279 11.60941,-4.42828 16.00228,-0.11349c4.46461,4.38526 4.4901,11.77457 0.11349,16.22927c-4.44709,4.52643 -11.93973,4.55192 -16.45625,0.11348c-4.58825,-4.50891 -4.61374,-12.10487 -0.11349,-16.68323c4.57074,-4.65006 12.27004,-4.67555 16.91022,-0.11348c4.71188,4.63257 4.73737,12.43519 0.11348,17.13719c-4.69439,4.77371 -12.60035,4.7992 -17.36418,0.11349c-4.83552,-4.75622 -4.86101,-12.7655 -0.11348,-17.59116c4.81804,-4.89734 12.93066,-4.92283 17.81814,-0.11349c4.95916,4.87988 4.98465,13.09582 0.11349,18.04513c-4.9417,5.02098 -13.26098,5.04647 -18.27211,0.11349c-5.0828,-5.00353 -5.10829,-13.42614 -0.11349,-18.4991c5.06535,-5.14461 13.59129,-5.1701 18.72608,-0.11348c5.20643,5.12717 5.23192,13.75644 0.11348,18.95305c-5.189,5.26826 -13.9216,5.29375 -19.18004,0.11349c-5.33007,-5.25083 -5.35556,-14.08676 -0.11348,-19.40702c5.31265,-5.39189 14.25191,-5.41739 19.634,-0.11349c5.45371,5.37448 5.4792,14.41708 0.11349,19.86099c-5.43631,5.51553 -14.58223,5.54102 -20.08797,0.11349c-5.57735,-5.49814 -5.60284,-14.74739 -0.11349,-20.31496c5.55996,-5.63917 14.91255,-5.66466 20.54194,-0.11348c5.70099,5.62178 5.72648,15.0777 0.11348,20.76892c-5.6836,5.76281 -15.24286,5.7883 -20.9959,0.11348c-5.82463,-5.74543 -5.85012,-15.40802 -0.11348,-21.22288c5.80725,-5.88645 15.57317,-5.91194 21.44986,-0.11349c5.94827,5.86908 5.97376,15.73834 0.11349,21.67685c-5.93091,6.01009 -15.90349,6.03558 -21.90383,0.11349c-6.07191,-5.99274 -6.09741,-16.06865 -0.11349,-22.13082c6.05456,-6.13373 16.23381,-6.15922 22.3578,-0.11348c6.19555,6.11638 6.22104,16.39896 0.11348,22.58478c-6.1782,6.25737 -16.56412,6.28286 -22.81176,0.11348c-6.31919,-6.24003 -6.34468,-16.72928 -0.11348,-23.03874c6.30185,-6.38102 16.89444,-6.40651 23.26572,-0.11349c6.44284,6.36368 6.46833,17.0596 0.11349,23.49271c-6.42551,6.50465 -17.22476,6.53014 -23.7197,0.11349c-6.56647,-6.48733 -6.59196,-17.38992 -0.11348,-23.94668c6.54915,-6.62829 17.55507,-6.65378 24.17366,-0.11348c6.69011,6.61097 6.7156,17.72023 0.11348,24.40064c-6.6728,6.75193 -17.88539,6.77742 -24.62762,0.11348c-6.81376,-6.73463 -6.83925,-18.05055 -0.11349,-24.85461c6.79646,-6.87557 18.21571,-6.90106 25.0816,-0.11348c6.93739,6.85828 6.96288,18.38087 0.11348,25.30857c-6.9201,6.99922 -18.54602,7.02471 -25.53556,0.11349c-7.06103,-6.98193 -7.08652,-18.71118 -0.11348,-25.76254c7.04375,-7.12286 18.87634,-7.14835 25.98952,-0.11349c7.18468,7.10558 7.21017,19.0415 0.11349,26.21651c-7.1674,7.2465 -19.20666,7.27199 -26.44349,0.11348c-7.30832,-7.22922 -7.33381,-19.37181 -0.11349,-26.67047c7.29105,-7.37014 19.53698,-7.39563 26.89746,-0.11348c7.43196,7.35287 7.45745,19.70213 0.11348,27.12443c-7.41469,7.49379 -19.86729,7.51928 -27.35142,0.11349c-7.5556,-7.47652 -7.58109,-20.03245 -0.11348,-27.5784c7.53834,-7.61743 20.19761,-7.64292 27.80538,-0.11349c7.67925,7.60017 7.70474,20.36277 0.11349,28.03237c-7.66199,7.74107 -20.52793,7.76656 -28.25935,0.11348c-7.80289,-7.72381 -7.82838,-20.69308 -0.11349,-28.48633c7.78564,-7.86471 20.85825,-7.8902 28.71332,-0.11348c7.92653,7.84746 7.95202,21.0234 0.11348,28.9403c-7.90928,7.98835 -21.18856,8.01384 -29.16728,0.11348c-8.05017,-7.97111 -8.07566,-21.35372 -0.11348,-29.39426c8.03293,-8.112 21.51888,-8.13749 29.62124,-0.11349c8.17382,8.09476 8.19931,21.68404 0.11349,29.84823c-8.15658,8.23564 -21.8492,8.26113 -30.07521,0.11348c-8.29746,-8.2184 -8.32295,-22.01435 -0.11349,-30.30219c8.28023,-8.35928 22.17952,-8.38477 30.52918,-0.11348c8.4211,8.34205 8.44659,22.34467 0.11348,30.75616c-8.40387,8.48292 -22.50983,8.50841 -30.98314,0.11348c-8.54474,-8.4657 -8.57023,-22.67499 -0.11348,-31.21012c8.52752,-8.60657 22.84015,-8.63206 31.4371,-0.11349c8.66839,8.58935 8.69388,23.00532 0.11349,31.66409c-8.65117,8.73021 -23.17047,8.7557 -31.89107,0.11349c-8.79203,-8.713 -8.81752,-23.33564 -0.11349,-32.11806c8.77482,-8.85385 23.50079,-8.87934 32.34504,-0.11348c8.91567,8.83664 8.94116,23.66595 0.11348,32.57202c-8.89846,8.97749 -23.83111,9.00298 -32.799,0.11348c-9.03931,-8.96029 -9.0648,-23.99627 -0.11348,-33.02599c9.02211,-9.10113 24.16142,-9.12662 33.25297,-0.11348c9.16295,9.08394 9.18844,24.32659 0.11348,33.47995c-9.14576,9.22478 -24.49175,9.25027 -33.70694,0.11349c-9.28659,-9.20759 -9.31208,-24.65691 -0.11348,-33.93392c9.26941,-9.34842 24.82207,-9.37391 34.1609,-0.11348c9.41024,9.33123 9.43573,24.98722 0.11348,34.38788c-9.39305,9.47206 -25.15238,9.49755 -34.61486,0.11348c-9.53388,-9.45488 -9.55937,-25.31754 -0.11348,-34.84185c9.5167,-9.5957 25.4827,-9.62119 35.06883,-0.11348c9.65752,9.57853 9.68301,25.64786 0.11348,35.29581c-9.64035,9.71935 -25.81302,9.74484 -35.5228,0.11349c-9.78117,-9.70217 -9.80665,-25.97818 -0.11348,-35.74978c9.764,-9.84299 26.14334,-9.86848 35.97676,-0.11348c9.90481,9.82581 9.9303,26.30849 0.11348,36.20374c-9.88764,9.96663 -26.47365,9.99212 -36.43072,0.11348c-10.02846,-9.94946 -10.05395,-26.63882 -0.11348,-36.65771c10.01128,-10.09027 26.80397,-10.11576 36.88469,-0.11348c10.1521,10.07311 10.17759,26.96914 0.11348,37.11168c-10.13493,10.21392 -27.1343,10.2394 -37.33866,0.11348c-10.27574,-10.19676 -10.30123,-27.29946 -0.11348,-37.56564c10.25858,-10.33757 27.46461,-10.36306 37.79262,-0.11348c10.39939,10.3204 10.42488,27.62977 0.11348,38.0196c-10.38222,10.46121 -27.79493,10.4867 -38.24658,0.11348c-10.52303,-10.44405 -10.54852,-27.96009 -0.11348,-38.47357c10.50587,-10.58485 28.12525,-10.61034 38.70055,-0.11348c10.64667,10.5677 10.67216,28.29041 0.11348,38.92754c-10.62952,10.70849 -28.45557,10.73398 -39.15452,0.11348c-10.77031,-10.69135 -10.7958,-28.62073 -0.11348,-39.3815c10.75317,-10.83214 28.78589,-10.85763 39.60848,-0.11349c10.89396,10.815 10.91945,28.95106 0.11349,39.83547c-10.87682,10.95578 -29.11621,10.98127 -40.06245,0.11348c-11.01761,-10.93863 -11.04309,-29.28137 -0.11349,-40.28943c11.00046,-11.07942 29.44653,-11.10491 40.51642,-0.11348c11.14125,11.06228 11.16673,29.61169 0.11348,40.7434c-11.12411,11.20306 -29.77685,11.22855 -40.97038,0.11348c-11.26489,-11.18593 -11.29038,-29.94201 -0.11348,-41.19737c11.24775,-11.32671 30.10717,-11.35219 41.42435,-0.11348c11.38853,11.30958 11.41402,30.27233 0.11348,41.65133c-11.3714,11.45036 -30.43749,11.47585 -41.87832,0.11348c-11.51217,-11.43322 -11.53766,-30.60264 -0.11348,-42.10529c11.49505,-11.574 30.76781,-11.59949 42.33228,-0.11348c11.63582,11.55687 11.66131,30.93296 0.11348,42.55926c-11.61869,11.69764 -31.09812,11.72313 -42.78624,0.11348c-11.75946,-11.68052 -11.78495,-31.26329 -0.11348,-43.01323c11.74234,-11.82128 31.42844,-11.84677 43.24021,-0.11348c11.8831,11.80416 11.90859,31.59361 0.11348,43.4672c-11.86599,11.94492 -31.75877,11.97041 -43.69418,0.11347c-12.00675,-11.9278 -12.03223,-31.92392 -0.11348,-43.92115c11.98963,-12.06857 32.08909,-12.09406 44.14814,-0.11348c12.1304,12.05145 12.15588,32.25424 0.11348,44.37512c-12.11327,12.19222 -32.4194,12.2177 -44.6021,0.11348c-12.25404,-12.1751 -12.27953,-32.58456 -0.11348,-44.82909c12.23692,-12.31586 32.74972,-12.34134 45.05607,-0.11348c12.37768,12.29875 12.40317,32.91488 0.11348,45.28306c-12.36057,12.4395 -33.08004,12.46499 -45.51004,0.11348c-12.50132,-12.4224 -12.52681,-33.24521 -0.11348,-45.73702c12.48422,-12.56315 33.41036,-12.58864 45.964,-0.11348c12.62497,12.54603 12.65046,33.57552 0.11348,46.19098c-12.60786,12.68679 -33.74068,12.71228 -46.41796,0.11348c-12.74862,-12.66968 -12.7741,-33.90584 -0.11348,-46.64495c12.7315,-12.81043 34.071,-12.83592 46.87193,-0.11348c12.87226,12.79333 12.89774,34.23616 0.11348,47.09892c-12.85515,12.93407 -34.40132,12.95956 -47.3259,0.11348c-12.9959,-12.91698 -13.02139,-34.56648 -0.11348,-47.55288c12.9788,-13.05773 34.73164,-13.08321 47.77987,-0.11348c13.11954,13.04062 13.14503,34.8968 0.11347,48.00684c-13.10244,13.18137 -35.06195,13.20686 -48.23382,0.11348c-13.24319,-13.16427 -13.26868,-35.22712 -0.11348,-48.46081c13.22609,-13.30501 35.39227,-13.3305 48.68779,-0.11348c13.36683,13.28791 13.39232,35.55744 0.11348,48.91478c-13.34974,13.42865 -35.7226,13.45414 -49.14176,0.11348c-13.49047,-13.41156 -13.51596,-35.88776 -0.11348,-49.36875c13.47338,-13.55229 36.05292,-13.57778 49.59573,-0.11347c13.61412,13.5352 13.6396,36.21807 0.11347,49.8227c-13.59702,13.67594 -36.38323,13.70143 -50.04969,0.11348c-13.73776,-13.65885 -13.76325,-36.5484 -0.11347,-50.27667c13.72067,-13.79959 36.71355,-13.82507 50.50365,-0.11348c13.86141,13.7825 13.8869,36.87872 0.11348,50.73064c-13.84432,13.92323 -37.04388,13.94872 -50.95762,0.11348c-13.98505,-13.90614 -14.01054,-37.20904 -0.11348,-51.18461c13.96797,-14.04687 37.3742,-14.07236 51.41159,-0.11347c14.10869,14.02978 14.13418,37.53935 0.11347,51.63857c-14.09161,14.17051 -37.70451,14.196 -51.86555,0.11347c-14.23234,-14.15343 -14.25782,-37.86967 -0.11347,-52.09253c14.21525,-14.29416 38.03483,-14.31965 52.31951,-0.11348c14.35599,14.27708 14.38147,38.2 0.11348,52.5465c-14.3389,14.4178 -38.36516,14.44329 -52.77348,0.11348c-14.47963,-14.40073 -14.50512,-38.53032 -0.11348,-53.00047c14.46255,-14.54145 38.69548,-14.56693 53.22745,-0.11347c14.60327,14.52437 14.62876,38.86063 0.11348,53.45443c-14.5862,14.66509 -39.0258,14.69058 -53.68142,0.11347c-14.72691,-14.64801 -14.7524,-39.19095 -0.11347,-53.90839c14.70983,-14.78874 39.35611,-14.81423 54.13537,-0.11348c14.85056,14.77166 14.87605,39.52127 0.11348,54.36236c-14.83348,14.91238 -39.68643,14.93787 -54.58934,0.11348c-14.97421,-14.89531 -14.99969,-39.8516 -0.11348,-54.81633c14.95713,-15.03602 40.01675,-15.06151 55.04331,-0.11348c15.09785,15.01896 15.12333,40.18192 0.11348,55.2703c-15.08078,15.15967 -40.34708,15.18515 -55.49728,0.11347c-15.22149,-15.1426 -15.24698,-40.51223 -0.11348,-55.72425c15.20443,-15.28332 40.6774,-15.3088 55.95125,-0.11348c15.34513,15.26624 15.37062,40.84255 0.11347,56.17822c-15.32807,15.40696 -41.00771,15.43245 -56.4052,0.11348c-15.46878,-15.38989 -15.49427,-41.17288 -0.11348,-56.63219c15.45171,-15.5306 41.33803,-15.55609 56.85917,-0.11348c15.59242,15.51354 15.61791,41.5032 0.11348,57.08616c-15.57536,15.65424 -41.66836,15.67973 -57.31314,0.11347c-15.71607,-15.63718 -15.74155,-41.83351 -0.11348,-57.54012c15.69901,-15.77788 41.99868,-15.80337 57.76711,-0.11347c15.83971,15.76083 15.86519,42.16383 0.11347,57.99408c-15.82265,15.90154 -42.32899,15.92702 -58.22107,0.11348c-15.96335,-15.88447 -15.98884,-42.49415 -0.11347,-58.44805c15.94629,-16.02518 42.65931,-16.05067 58.67503,-0.11348c16.087,16.00812 16.11249,42.82448 0.11348,58.90202c-16.06994,16.14882 -42.98964,16.17431 -59.129,0.11347c-16.21065,-16.13176 -16.23613,-43.15479 -0.11348,-59.35598c16.19359,-16.27246 43.31996,-16.29795 59.58297,-0.11347c16.33429,16.25541 16.35977,43.48511 0.11347,59.80995c-16.31723,16.39611 -43.65027,16.42159 -60.03693,0.11347c-16.45793,-16.37906 -16.48342,-43.81543 -0.11347,-60.26391c16.44088,-16.51976 43.98059,-16.54524 60.49089,-0.11348c16.58158,16.5027 16.60707,44.14576 0.11348,60.71788c-16.56453,16.6434 -44.31092,16.66889 -60.94486,0.11348c-16.70522,-16.62635 -16.73071,-44.47608 -0.11348,-61.17185c16.68817,-16.76704 44.64124,-16.79253 61.39883,-0.11347c16.82886,16.74999 16.85435,44.80639 0.11347,61.62581c-16.81181,16.89068 -44.97155,16.91617 -61.85279,0.11347c-16.95251,-16.87364 -16.97799,-45.13671 -0.11347,-62.07977c16.93546,-17.01433 45.30187,-17.03982 62.30675,-0.11348c17.07616,16.99729 17.10164,45.46704 0.11348,62.53374c-17.05911,17.13798 -45.63219,17.16346 -62.76072,0.11348c-17.1998,-17.12093 -17.22529,-45.79736 -0.11348,-62.98771c17.18275,-17.26162 45.96251,-17.2871 63.21469,-0.11347c17.32344,17.24457 17.34893,46.12767 0.11347,63.44167c-17.30639,17.38526 -46.29283,17.41075 -63.66865,0.11347c-17.44709,-17.36822 -17.47257,-46.45799 -0.11347,-63.89563c17.43004,-17.50891 46.62315,-17.5344 64.12262,-0.11348c17.57073,17.49187 17.59621,46.78831 0.11347,64.3496c-17.55369,17.63256 -46.95347,17.65804 -64.57658,0.11348c-17.69438,-17.61551 -17.71987,-47.11864 -0.11348,-64.80357c17.67733,-17.7562 47.28379,-17.78168 65.03055,-0.11347c17.81802,17.73915 17.84351,47.44895 0.11347,65.25753c-17.80097,17.87984 -47.61411,17.90533 -65.48451,0.11347c-17.94166,-17.8628 -17.96715,-47.77927 -0.11347,-65.7115c17.92462,-18.00348 47.94443,-18.02897 65.93848,-0.11347c18.0653,17.98645 18.09079,48.10959 0.11347,66.16546c-18.04827,18.12713 -48.27475,18.15262 -66.39245,0.11348c-18.18895,-18.11009 -18.21443,-48.43992 -0.11347,-66.61943c18.17192,-18.25077 48.60507,-18.27626 66.84641,-0.11347c18.3126,18.23373 18.33808,48.77023 0.11348,67.07339c-18.29557,18.37442 -48.9354,18.3999 -67.30038,0.11347c-18.43624,-18.35738 -18.46173,-49.10055 -0.11347,-67.52736c18.4192,-18.49806 49.26571,-18.52354 67.75434,-0.11347c18.55988,18.48103 18.58537,49.43087 0.11347,67.98133c-18.54285,18.6217 -49.59603,18.64719 -68.20831,0.11347c-18.68353,-18.60468 -18.70901,-49.7612 -0.11347,-68.43529c18.6665,-18.74535 49.92635,-18.77084 68.66227,-0.11348c18.80718,18.72832 18.83266,50.09152 0.11348,68.88926c-18.79015,18.869 -50.25668,18.89448 -69.11624,0.11347c-18.93082,-18.85196 -18.95631,-50.42183 -0.11348,-69.34322c18.91379,-18.99264 50.587,-19.01812 69.57021,-0.11347c19.05446,18.97561 19.07995,50.75215 0.11347,69.79719c-19.03743,19.11628 -50.91731,19.14177 -70.02417,0.11347c-19.1781,-19.09926 -19.20359,-51.08248 -0.11347,-70.25115c19.16108,-19.23993 51.24763,-19.26542 70.47813,-0.11348c19.30176,19.2229 19.32724,51.4128 0.11348,70.70512c-19.28473,19.36357 -51.57796,19.38906 -70.9321,0.11347c-19.4254,-19.34654 -19.45088,-51.74311 -0.11348,-71.15908c19.40837,-19.48722 51.90828,-19.5127 71.38607,-0.11347c19.54904,19.47019 19.57452,52.07343 0.11347,71.61305c-19.53201,19.61086 -52.23859,19.63634 -71.84003,0.11347c-19.67268,-19.59384 -19.69817,-52.40376 -0.11347,-72.06701c19.65566,-19.73451 52.56891,-19.76 72.294,-0.11348c19.79632,19.71749 19.82181,52.73408 0.11347,72.52098c-19.77931,19.85815 -52.89924,19.88364 -72.74797,0.11347c-19.91997,-19.84112 -19.94545,-53.06439 -0.11347,-72.97494c19.90295,-19.98179 53.22956,-20.00728 73.20193,-0.11347c20.04362,19.96477 20.0691,53.39471 0.11347,73.42891c-20.02659,20.10544 -53.55987,20.13092 -73.65589,0.11347c-20.16726,-20.08842 -20.19275,-53.72504 -0.11347,-73.88288c20.15024,-20.22908 53.89019,-20.25456 74.10986,-0.11347c20.2909,20.21207 20.31639,54.05536 0.11347,74.33684c-20.27389,20.35273 -54.22052,20.37822 -74.56383,0.11348c-20.41455,-20.33571 -20.44003,-54.38568 -0.11347,-74.79081c20.39753,-20.47637 54.55084,-20.50186 75.01779,-0.11347c20.5382,20.45935 20.56368,54.71599 0.11347,75.24477c-20.52117,20.60002 -54.88115,20.6255 -75.47175,0.11347c-20.66184,-20.583 -20.68733,-55.04632 -0.11347,-75.69874c20.64482,-20.72366 55.21147,-20.74914 75.92572,-0.11347c20.78548,20.70665 20.81097,55.37664 0.11347,76.15271c-20.76847,20.8473 -55.5418,20.87279 -76.37969,0.11347c-20.90913,-20.83029 -20.93461,-55.70696 -0.11347,-76.60667c20.89212,-20.97095 55.87212,-20.99644 76.83365,-0.11347c21.03278,20.95393 21.05826,56.03727 0.11347,77.06063c-21.01575,21.0946 -56.20243,21.12008 -77.28761,0.11347c-21.15642,-21.07758 -21.1819,-56.3676 -0.11347,-77.5146c21.1394,-21.21824 56.53275,-21.24372 77.74158,-0.11347c21.28006,21.20123 21.30554,56.69792 0.11347,77.96857c-21.26305,21.34188 -56.86308,21.36736 -78.19555,0.11347c-21.4037,-21.32487 -21.42919,-57.02824 -0.11347,-78.42253c21.3867,-21.46553 57.1934,-21.49102 78.64951,-0.11347c21.52735,21.44851 21.55284,57.35855 0.11347,78.87649c-21.51034,21.58917 -57.52371,21.61466 -79.10347,0.11347c-21.651,-21.57216 -21.67648,-57.68888 -0.11347,-79.33046c21.63398,-21.71282 57.85403,-21.7383 79.55744,-0.11347c21.77464,21.69581 21.80012,58.0192 0.11347,79.78443c-21.75763,21.83646 -58.18436,21.86194 -80.01141,0.11347c-21.89828,-21.81946 -21.92377,-58.34952 -0.11347,-80.23839c21.88128,-21.96011 58.51468,-21.98559 80.46538,-0.11347c22.02192,21.94309 22.04741,58.67983 0.11347,80.69235c-22.00493,22.08375 -58.845,22.10924 -80.91935,0.11347c-22.14557,-22.06674 -22.17105,-59.01016 -0.11346,-81.14632c17.39517,-17.45714 44.7994,-21.82828 66.77322,-10.68165"/>
    <circle stroke-dashoffset="0" stroke-miterlimit="4" stroke-linejoin="round" stroke-linecap="round" stroke-width="0.961" stroke="#313131" fill="url(#radialGradient851)" id="path819" cx="-15.66415" cy="93.77361" r="15.83572"/>
    <circle stroke-dashoffset="0" stroke-miterlimit="4" stroke-linejoin="round" stroke-linecap="round" stroke-width="0.35454" fill="#1a1a1a" r="1.67043" cy="93.77361" cx="-15.66415" id="circle821"/>
    <circle stroke-dashoffset="0" stroke-miterlimit="4" stroke-linejoin="round" stroke-linecap="round" stroke-width="0.461" stroke="#414141" fill="none" r="57.45238" cy="93.77361" cx="-15.66415" id="circle827"/>
   </g>
  </g>
 </g>
</svg>