<?xml version="1.0" encoding="UTF-8" standalone="no"?>
<!-- Created with Inkscape (http://www.inkscape.org/) -->

<svg
   xmlns:dc="http://purl.org/dc/elements/1.1/"
   xmlns:cc="http://creativecommons.org/ns#"
   xmlns:rdf="http://www.w3.org/1999/02/22-rdf-syntax-ns#"
   xmlns:svg="http://www.w3.org/2000/svg"
   xmlns="http://www.w3.org/2000/svg"
   xmlns:xlink="http://www.w3.org/1999/xlink"
   xmlns:sodipodi="http://sodipodi.sourceforge.net/DTD/sodipodi-0.dtd"
   xmlns:inkscape="http://www.inkscape.org/namespaces/inkscape"
   width="210mm"
   height="210mm"
   viewBox="0 0 210 210"
   version="1.1"
   id="svg8"
   inkscape:version="0.92.4 5da689c313, 2019-01-14"
   sodipodi:docname="vinyl.svg">
  <defs
     id="defs2">
    <linearGradient
       inkscape:collect="always"
       id="linearGradient849">
      <stop
         style="stop-color:#f9f9f9;stop-opacity:1;"
         offset="0"
         id="stop845" />
      <stop
         style="stop-color:#e6e6e6;stop-opacity:1"
         offset="1"
         id="stop847" />
    </linearGradient>
    <linearGradient
       inkscape:collect="always"
       id="linearGradient841">
      <stop
         style="stop-color:#4c4c4c;stop-opacity:1"
         offset="0"
         id="stop837" />
      <stop
         style="stop-color:#1a1a1a;stop-opacity:0.97899157"
         offset="1"
         id="stop839" />
    </linearGradient>
    <radialGradient
       inkscape:collect="always"
       xlink:href="#linearGradient841"
       id="radialGradient843"
       cx="-15.664154"
       cy="141.56799"
       fx="-15.664154"
       fy="141.56799"
       r="57.452377"
       gradientUnits="userSpaceOnUse" />
    <radialGradient
       inkscape:collect="always"
       xlink:href="#linearGradient849"
       id="radialGradient851"
       cx="-15.664154"
       cy="141.56799"
       fx="-15.664154"
       fy="141.56799"
       r="16.316219"
       gradientUnits="userSpaceOnUse" />
  </defs>
  <sodipodi:namedview
     id="base"
     pagecolor="#ffffff"
     bordercolor="#666666"
     borderopacity="1.0"
     inkscape:pageopacity="0.0"
     inkscape:pageshadow="2"
     inkscape:zoom="0.7"
     inkscape:cx="201.01033"
     inkscape:cy="503.85581"
     inkscape:document-units="mm"
     inkscape:current-layer="layer1"
     showgrid="false"
     inkscape:pagecheckerboard="true"
     inkscape:window-width="1366"
     inkscape:window-height="742"
     inkscape:window-x="0"
     inkscape:window-y="-8"
     inkscape:window-maximized="1" />
  <metadata
     id="metadata5">
    <rdf:RDF>
      <cc:Work
         rdf:about="">
        <dc:format>image/svg+xml</dc:format>
        <dc:type
           rdf:resource="http://purl.org/dc/dcmitype/StillImage" />
        <dc:title></dc:title>
      </cc:Work>
    </rdf:RDF>
  </metadata>
  <g
     inkscape:label="Ebene 1"
     inkscape:groupmode="layer"
     id="layer1"
     transform="translate(0,-87)">
    <g
       id="g858"
       transform="matrix(1.8202975,0,0,1.8202975,133.51342,-65.695878)">
      <circle
         r="57.452377"
         cy="141.56799"
         cx="-15.664154"
         id="path815"
         style="opacity:1;fill:url(#radialGradient843);fill-opacity:1;stroke:none;stroke-width:3.36100006;stroke-linecap:round;stroke-linejoin:round;stroke-miterlimit:4;stroke-dasharray:none;stroke-dashoffset:0;stroke-opacity:1;paint-order:stroke fill markers" />
      <path
         d="m -15.939379,141.54645 c 0.06828,0.0683 -0.05836,0.12573 -0.113491,0.11349 -0.149414,-0.0332 -0.173433,-0.22456 -0.113491,-0.34048 0.107221,-0.20735 0.38565,-0.23164 0.567456,-0.11349 0.266808,0.1734 0.291582,0.54894 0.113492,0.79444 -0.237366,0.32723 -0.71299,0.35226 -1.021423,0.11349 -0.388131,-0.30045 -0.413305,-0.87741 -0.113491,-1.2484 0.363116,-0.44932 1.042052,-0.47458 1.475388,-0.11349 0.510672,0.42553 0.535989,1.20682 0.113491,1.70237 -0.48779,0.57214 -1.371669,0.59749 -1.929353,0.11349 -0.633677,-0.54995 -0.659059,-1.53658 -0.113491,-2.15634 0.612045,-0.69527 1.701538,-0.72067 2.383319,-0.11349 0.756905,0.67409 0.782322,1.86653 0.11349,2.6103 -0.736093,0.81857 -2.031545,0.844 -2.837284,0.1135 -0.880258,-0.79807 -0.905696,-2.19659 -0.11349,-3.06427 0.860024,-0.94197 2.361634,-0.96741 3.291249,-0.11349 1.003687,0.92196 1.029138,2.5267 0.113491,3.51823 -0.983883,1.06542 -2.691778,1.09088 -3.745215,0.11349 -1.127166,-1.04579 -1.152626,-2.85686 -0.113491,-3.9722 1.107693,-1.18892 3.021958,-1.21438 4.199181,-0.11349 1.250678,1.16959 1.276145,3.18706 0.11349,4.42617 -1.23147,1.31244 -3.352165,1.33791 -4.653146,0.11349 -1.374216,-1.29335 -1.399687,-3.51728 -0.11349,-4.88013 1.355223,-1.43599 3.682391,-1.46147 5.107111,-0.11349 1.497772,1.41709 1.523247,3.84751 0.11349,5.33409 -1.478957,1.55956 -4.012632,1.58503 -5.561077,0.11349 -1.621342,-1.54082 -1.646819,-4.17776 -0.113489,-5.78806 1.602678,-1.68313 4.342885,-1.70861 6.015042,-0.11349 1.744923,1.66454 1.770403,4.50802 0.11349,6.24203 -1.726388,1.80671 -4.673148,1.83219 -6.469008,0.11349 -1.868513,-1.78824 -1.893994,-4.83829 -0.11349,-6.69599 1.850089,-1.93031 5.003417,-1.9558 6.922973,-0.11349 1.99211,1.91193 2.017593,5.16855 0.11349,7.14995 -1.973783,2.05391 -5.333693,2.0794 -7.376939,0.11349 -2.115712,-2.03563 -2.141196,-5.49883 -0.113489,-7.60392 2.097471,-2.17751 5.663974,-2.203 7.830904,-0.11349 2.2393191,2.15931 2.2648042,5.82912 0.113489,8.05789 -2.221154,2.30112 -5.994259,2.32661 -8.284869,0.11349 -2.362931,-2.283 -2.388417,-6.15941 -0.113489,-8.51186 2.344833,-2.42473 6.324548,-2.45022 8.738835,-0.11348 2.4865447,2.40667 2.5120312,6.48969 0.113488,8.96581 -2.468509,2.54836 -6.654839,2.57384 -9.1928,0.11349 -2.610163,-2.53034 -2.63565,-6.81998 -0.113489,-9.41978 2.592182,-2.67197 6.985135,-2.69746 9.646766,-0.11349 2.7337831,2.65402 2.7592706,7.15028 0.113489,9.87375 -2.715853,2.79559 -7.315431,2.82108 -10.100731,0.11349 -2.857406,-2.77769 -2.882894,-7.48058 -0.113489,-10.32772 2.83952,-2.91921 7.64573,-2.9447 10.554697,-0.11348 2.9810292,2.90135 3.0065175,7.81088 0.113488,10.78167 -2.963186,3.04285 -7.976031,3.06834 -11.008662,0.11349 -3.104655,-3.02502 -3.130144,-8.14118 -0.113488,-11.23564 3.086851,-3.16647 8.306333,-3.19196 11.462627,-0.11349 3.2282831,3.14868 3.2537719,8.47148 0.113488,11.68961 -3.210513,3.2901 -8.636636,3.31559 -11.916593,0.11349 -3.351911,-3.27235 -3.3774,-8.80179 -0.113488,-12.14358 3.334176,-3.41372 8.966942,-3.43921 12.3705588,-0.11349 3.4755414,3.39601 3.5010306,9.1321 0.113488,12.59755 -3.4578358,3.53735 -9.2972468,3.56284 -12.8245238,0.11348 -3.599172,-3.51966 -3.624662,-9.4624 -0.113488,-13.0515 3.581495,-3.66099 9.627554,-3.68648 13.2784894,-0.11349 3.7228041,3.64332 3.7482937,9.79271 0.1134877,13.50547 -3.7051531,3.78462 -9.9578621,3.81011 -13.7324551,0.11349 -3.846436,-3.76698 -3.871926,-10.12302 -0.113487,-13.95944 3.828811,-3.90825 10.28817,-3.93374 14.18642,-0.11349 3.9700702,3.89064 3.99556,10.45333 0.1134874,14.41341 -3.9524674,4.03188 -10.6184794,4.05737 -14.6403854,0.11348 -4.093705,-4.01429 -4.119195,-10.78363 -0.113488,-14.86736 4.076124,-4.15553 10.94879,-4.18102 15.0943515,-0.11349 4.2173392,4.13795 4.2428292,11.11394 0.1134872,15.32133 -4.1997787,4.27916 -11.2791007,4.30465 -15.5483167,0.11349 -4.340974,-4.26161 -4.366464,-11.44426 -0.113487,-15.7753 4.323434,-4.40279 11.609412,-4.42828 16.0022821,-0.11349 4.4646104,4.38526 4.4901005,11.77457 0.1134869,16.22927 -4.447088,4.52643 -11.939723,4.55192 -16.456247,0.11348 -4.588247,-4.50891 -4.613737,-12.10487 -0.113487,-16.68323 4.570741,-4.65006 12.270035,-4.67555 16.9102127,-0.11348 4.7118836,4.63257 4.7373738,12.43519 0.1134867,17.13719 -4.6943944,4.77371 -12.6003484,4.7992 -17.3641784,0.11349 -4.835521,-4.75622 -4.861011,-12.7655 -0.113486,-17.59116 4.818047,-4.89734 12.930661,-4.92283 17.8181432,-0.11349 4.9591585,4.87988 4.9846488,13.09582 0.1134865,18.04513 -4.9416997,5.02098 -13.2609747,5.04647 -18.2721087,0.11349 -5.082797,-5.00353 -5.108287,-13.42614 -0.113487,-18.4991 5.065352,-5.14461 13.591289,-5.1701 18.7260748,-0.11348 5.2064348,5.12717 5.2319251,13.75644 0.1134862,18.95305 -5.189003,5.26826 -13.921603,5.29375 -19.18004,0.11349 -5.330073,-5.25083 -5.355564,-14.08676 -0.113486,-19.40702 5.312655,-5.39189 14.251917,-5.41739 19.6340054,-0.11349 5.45371224,5.37448 5.4792026,14.41708 0.1134859,19.86099 -5.4363053,5.51553 -14.5822313,5.54102 -20.0879713,0.11349 -5.577351,-5.49814 -5.602841,-14.74739 -0.113485,-20.31496 5.559956,-5.63917 14.912546,-5.66466 20.5419359,-0.11348 5.70099088,5.62178 5.72648125,15.0777 0.1134857,20.76892 -5.6836066,5.76281 -15.2428616,5.7883 -20.9959016,0.11348 -5.824631,-5.74543 -5.850121,-15.40802 -0.113486,-21.22288 5.807258,-5.88645 15.573177,-5.91194 21.4498675,-0.11349 5.94827036,5.86908 5.97376071,15.73834 0.1134855,21.67685 -5.930907,6.01009 -15.903493,6.03558 -21.903833,0.11349 -6.07191,-5.99274 -6.097401,-16.06865 -0.113485,-22.13082 6.054557,-6.13373 16.233808,-6.15922 22.3577981,-0.11348 6.1955506,6.11638 6.221041,16.39896 0.1134852,22.58478 -6.1782073,6.25737 -16.5641243,6.28286 -22.8117633,0.11348 -6.319191,-6.24003 -6.344682,-16.72928 -0.113485,-23.03874 6.301856,-6.38102 16.89444,-6.40651 23.2657286,-0.11349 6.4428318,6.36368 6.4683221,17.0596 0.113485,23.49271 -6.4255056,6.50465 -17.2247566,6.53014 -23.7196946,0.11349 -6.566472,-6.48733 -6.591963,-17.38992 -0.113485,-23.94668 6.549155,-6.62829 17.555074,-6.65378 24.1736602,-0.11348 6.6901134,6.61097 6.7156037,17.72023 0.1134847,24.40064 -6.6728039,6.75193 -17.8853899,6.77742 -24.6276249,0.11348 -6.813755,-6.73463 -6.839245,-18.05055 -0.113485,-24.85461 6.796453,-6.87557 18.215707,-6.90106 25.0815908,-0.11348 6.9373956,6.85828 6.9628858,18.38087 0.1134844,25.30857 -6.9201012,6.99922 -18.5460242,7.02471 -25.5355562,0.11349 -7.061037,-6.98193 -7.086527,-18.71118 -0.113484,-25.76254 7.043749,-7.12286 18.876341,-7.14835 25.9895213,-0.11349 7.1846785,7.10558 7.2101686,19.0415 0.1134843,26.21651 -7.1673982,7.2465 -19.2066586,7.27199 -26.4434876,0.11348 -7.30832,-7.22922 -7.33381,-19.37181 -0.113484,-26.67047 7.291047,-7.37014 19.5369757,-7.39563 26.8974529,-0.11348 7.4319617,7.35287 7.4574518,19.70213 0.113484,27.12443 -7.4146947,7.49379 -19.8672929,7.51928 -27.3514179,0.11349 -7.555604,-7.47652 -7.581094,-20.03245 -0.113484,-27.5784 7.538343,-7.61743 20.1976103,-7.64292 27.8053835,-0.11349 7.6792453,7.60017 7.7047353,20.36277 0.1134837,28.03237 -7.6619907,7.74107 -20.5279282,7.76656 -28.2593492,0.11348 -7.802887,-7.72381 -7.828377,-20.69308 -0.113483,-28.48633 7.785638,-7.86471 20.8582453,-7.8902 28.713314,-0.11348 7.9265294,7.84746 7.9520193,21.0234 0.1134835,28.9403 -7.9092864,7.98835 -21.1885635,8.01384 -29.1672795,0.11348 -8.050172,-7.97111 -8.075662,-21.35372 -0.113484,-29.39426 8.032934,-8.112 21.5188816,-8.13749 29.6212456,-0.11349 8.1738137,8.09476 8.1993036,21.68404 0.11348324,29.84823 -8.15658164,8.23564 -21.84919884,8.26113 -30.07521084,0.11348 -8.297456,-8.2184 -8.322946,-22.01435 -0.113483,-30.30219 8.280229,-8.35928 22.1795173,-8.38477 30.52917617,-0.11348 8.42109843,8.34205 8.44658823,22.34467 0.11348299,30.75616 -8.40387666,8.48292 -22.50983516,8.50841 -30.98314116,0.11348 -8.544741,-8.4657 -8.570231,-22.67499 -0.113483,-31.21012 8.527524,-8.60657 22.8401533,-8.63206 31.43710674,-0.11349 8.66838336,8.58935 8.69387306,23.00532 0.11348274,31.66409 -8.65117128,8.73021 -23.17047148,8.7557 -31.89107248,0.11349 -8.792026,-8.713 -8.817516,-23.33564 -0.113483,-32.11806 8.774819,-8.85385 23.5007906,-8.87934 32.34503831,-0.11348 8.91566859,8.83664 8.94115819,23.66595 0.1134825,32.57202 -8.89846571,8.97749 -23.83110881,9.00298 -32.79900381,0.11348 -9.039311,-8.96029 -9.0648,-23.99627 -0.113482,-33.02599 9.022113,-9.10113 24.1614271,-9.12662 33.25296888,-0.11348 9.16295402,9.08394 9.18844362,24.32659 0.11348225,33.47995 -9.14575993,9.22478 -24.49174513,9.25027 -33.70693413,0.11349 -9.286597,-9.20759 -9.312087,-24.65691 -0.113482,-33.93392 9.269407,-9.34842 24.8220638,-9.37391 34.1608994,-0.11348 9.4102396,9.33123 9.4357296,24.98722 0.113482,34.38788 -9.3930538,9.47206 -25.1523824,9.49755 -34.6148654,0.11348 -9.533882,-9.45488 -9.559372,-25.31754 -0.113482,-34.84185 9.516701,-9.5957 25.4827018,-9.62119 35.068831,-0.11348 9.657526,9.57853 9.683015,25.64786 0.1134818,35.29581 -9.6403475,9.71935 -25.8130198,9.74484 -35.5227958,0.11349 -9.781169,-9.70217 -9.806658,-25.97818 -0.113482,-35.74978 9.763994,-9.84299 26.143339,-9.86848 35.9767616,-0.11348 9.9048114,9.82581 9.9303014,26.30849 0.1134815,36.20374 -9.887641,9.96663 -26.4736581,9.99212 -36.4307271,0.11348 -10.028455,-9.94946 -10.053944,-26.63882 -0.113481,-36.65771 10.011287,-10.09027 26.8039763,-10.11576 36.8846921,-0.11348 10.1520979,10.07311 10.1775869,26.96914 0.1134813,37.11168 -10.1349343,10.21392 -27.1342954,10.2394 -37.3386574,0.11348 -10.275742,-10.19676 -10.301231,-27.29946 -0.113482,-37.56564 10.258581,-10.33757 27.4646148,-10.36306 37.7926237,-0.11348 10.3993843,10.3204 10.4248733,27.62977 0.113481,38.0196 -10.3822275,10.46121 -27.7949337,10.4867 -38.2465887,0.11348 -10.523028,-10.44405 -10.548517,-27.96009 -0.113481,-38.47357 10.505874,-10.58485 28.1252525,-10.61034 38.7005543,-0.11348 10.6466707,10.5677 10.6721597,28.29041 0.1134807,38.92754 -10.6295205,10.70849 -28.455571,10.73398 -39.15452,0.11348 -10.770314,-10.69135 -10.795803,-28.62073 -0.11348,-39.3815 10.753167,-10.83214 28.7858903,-10.85763 39.6084849,-0.11349 10.8939581,10.815 10.9194461,28.95106 0.1134805,39.83547 -10.8768134,10.95578 -29.1162094,10.98127 -40.0624504,0.11348 -11.017601,-10.93863 -11.04309,-29.28137 -0.113481,-40.28943 11.00046,-11.07942 29.4465293,-11.10491 40.5164164,-0.11348 11.1412446,11.06228 11.1667336,29.61169 0.1134803,40.7434 -11.1241061,11.20306 -29.7768477,11.22855 -40.9703817,0.11348 -11.264888,-11.18593 -11.290376,-29.94201 -0.11348,-41.19737 11.247753,-11.32671 30.1071674,-11.35219 41.424347,-0.11348 11.388531,11.30958 11.41402,30.27233 0.11348,41.65133 -11.3713987,11.45036 -30.437486,11.47585 -41.878312,0.11348 -11.512175,-11.43322 -11.537664,-30.60264 -0.11348,-42.10529 11.495045,-11.574 30.7678056,-11.59949 42.3322776,-0.11348 11.6358184,11.55687 11.6613074,30.93296 0.1134797,42.55926 -11.6186911,11.69764 -31.0981253,11.72313 -42.7862433,0.11348 -11.759462,-11.68052 -11.78495,-31.26329 -0.113479,-43.01323 11.742337,-11.82128 31.4284439,-11.84677 43.2402081,-0.11348 11.8831059,11.80416 11.9085939,31.59361 0.1134796,43.4672 -11.8659836,11.94492 -31.7587637,11.97041 -43.6941737,0.11347 -12.00675,-11.9278 -12.032238,-31.92392 -0.11348,-43.92115 11.98963,-12.06857 32.0890834,-12.09406 44.1481397,-0.11348 12.1303933,12.05145 12.1558813,32.25424 0.1134793,44.37512 -12.1132758,12.19222 -32.419403,12.2177 -44.602105,0.11348 -12.254037,-12.1751 -12.279525,-32.58456 -0.113479,-44.82909 12.236922,-12.31586 32.7497219,-12.34134 45.0560703,-0.11348 12.3776807,12.29875 12.4031687,32.91488 0.113479,45.28306 -12.3605679,12.4395 -33.0800413,12.46499 -45.5100363,0.11348 -12.501324,-12.4224 -12.526812,-33.24521 -0.113478,-45.73702 12.484214,-12.56315 33.4103605,-12.58864 45.9640008,-0.11348 12.6249682,12.54603 12.6504562,33.57552 0.1134788,46.19098 -12.60786,12.68679 -33.7406806,12.71228 -46.4179666,0.11348 -12.748612,-12.66968 -12.7741,-33.90584 -0.113479,-46.64495 12.731506,-12.81043 34.0710002,-12.83592 46.8719324,-0.11348 12.8722556,12.79333 12.8977436,34.23616 0.1134785,47.09892 -12.8551519,12.93407 -34.4013199,12.95956 -47.3258979,0.11348 -12.995899,-12.91698 -13.021387,-34.56648 -0.113478,-47.55288 12.978798,-13.05773 34.731639,-13.08321 47.779863,-0.11348 13.119543,13.04062 13.145031,34.8968 0.1134783,48.00684 -13.1024439,13.18137 -35.0619583,13.20686 -48.2338283,0.11348 -13.243187,-13.16427 -13.268675,-35.22712 -0.113478,-48.46081 13.226089,-13.30501 35.3922779,-13.3305 48.6877935,-0.11348 13.3668305,13.28791 13.3923185,35.55744 0.1134781,48.91478 -13.3497357,13.42865 -35.7225976,13.45414 -49.1417596,0.11348 -13.490474,-13.41156 -13.515962,-35.88776 -0.113478,-49.36875 13.473382,-13.55229 36.0529179,-13.57778 49.5957251,-0.11347 13.6141189,13.5352 13.6396059,36.21807 0.1134778,49.8227 -13.5970274,13.67594 -36.3832369,13.70143 -50.0496899,0.11348 -13.737763,-13.65885 -13.763251,-36.5484 -0.113478,-50.27667 13.720673,-13.79959 36.7135569,-13.82507 50.5036557,-0.11348 13.8614063,13.7825 13.8868943,36.87872 0.1134775,50.73064 -13.8443191,13.92323 -37.0438762,13.94872 -50.9576212,0.11348 -13.98505,-13.90614 -14.010538,-37.20904 -0.113477,-51.18461 13.967965,-14.04687 37.374196,-14.07236 51.4115862,-0.11347 14.1086948,14.02978 14.1341818,37.53935 0.1134773,51.63857 -14.0916107,14.17051 -37.7045165,14.196 -51.8655515,0.11347 -14.232339,-14.15343 -14.257826,-37.86967 -0.113478,-52.09253 14.215257,-14.29416 38.0348361,-14.31965 52.319518,-0.11348 14.355982,14.27708 14.38147,38.2 0.113477,52.5465 -14.3389024,14.4178 -38.365156,14.44329 -52.773483,0.11348 -14.479626,-14.40073 -14.505114,-38.53032 -0.113477,-53.00047 14.462548,-14.54145 38.6954753,-14.56693 53.227448,-0.11347 14.603271,14.52437 14.628758,38.86063 0.113477,53.45443 -14.5861935,14.66509 -39.025795,14.69058 -53.681414,0.11347 -14.726914,-14.64801 -14.752401,-39.19095 -0.113476,-53.90839 14.709839,-14.78874 39.3561146,-14.814227 54.135379,-0.11348 14.850558,14.77166 14.876046,39.52127 0.113477,54.36236 -14.8334856,14.91238 -39.686435,14.93787 -54.589345,0.11348 -14.974203,-14.89531 -14.99969,-39.8516 -0.113477,-54.81633 14.957131,-15.036024 40.0167549,-15.061511 55.043311,-0.11348 15.097846,15.01896 15.123333,40.18192 0.113476,55.2703 -15.0807767,15.15967 -40.347075,15.18515 -55.497276,0.11347 -15.22149,-15.1426 -15.246977,-40.51223 -0.113476,-55.72425 15.204422,-15.283317 40.6773943,-15.308804 55.951241,-0.11348 15.345135,15.26624 15.370622,40.84255 0.113476,56.17822 -15.3280677,15.40696 -41.007714,15.43245 -56.405206,0.11348 -15.468779,-15.38989 -15.494266,-41.17288 -0.113476,-56.63219 15.451713,-15.530601 41.3380337,-15.556088 56.859172,-0.11348 15.592423,15.51354 15.617909,41.5032 0.113475,57.08616 -15.5753586,15.65424 -41.668353,15.67973 -57.313137,0.11347 -15.716067,-15.63718 -15.741554,-41.83351 -0.113476,-57.54012 15.699005,-15.777885 41.9986742,-15.803372 57.767103,-0.11347 15.839711,15.76083 15.865198,42.16383 0.113476,57.99408 -15.8226505,15.90154 -42.328994,15.92702 -58.221068,0.11348 -15.963356,-15.88447 -15.988843,-42.49415 -0.113476,-58.44805 15.946296,-16.025179 42.6593137,-16.050666 58.675034,-0.11348 16.086999,16.00812 16.112486,42.82448 0.113475,58.90202 -16.0699414,16.14882 -42.989633,16.17431 -59.128999,0.11347 -16.210644,-16.13176 -16.23613,-43.15479 -0.113475,-59.35598 16.193587,-16.272463 43.3199533,-16.297949 59.582964,-0.11347 16.334288,16.25541 16.359775,43.48511 0.113475,59.80995 -16.3172322,16.39611 -43.650273,16.42159 -60.03693,0.11347 -16.457932,-16.37906 -16.483418,-43.81543 -0.113475,-60.26391 16.440879,-16.519757 43.9805939,-16.545243 60.490896,-0.11348 16.581576,16.5027 16.607063,44.14576 0.113475,60.71788 -16.564524,16.6434 -44.310914,16.66889 -60.944861,0.11348 -16.705221,-16.62635 -16.730707,-44.47608 -0.113475,-61.17185 16.688169,-16.767041 44.6412335,-16.792527 61.398826,-0.11347 16.828865,16.74999 16.854352,44.80639 0.113475,61.62581 -16.8118147,16.89068 -44.971553,16.91617 -61.852792,0.11347 -16.952509,-16.87364 -16.977995,-45.13671 -0.113474,-62.07977 16.93546,-17.014335 45.3018732,-17.039821 62.306757,-0.11348 17.076153,16.99729 17.101639,45.46704 0.113474,62.53374 -17.0591054,17.13798 -45.632193,17.16346 -62.760722,0.11348 -17.199798,-17.12093 -17.225284,-45.79736 -0.113475,-62.98771 17.182752,-17.261619 45.9625139,-17.287105 63.214689,-0.11347 17.323441,17.24457 17.348927,46.12767 0.113474,63.44167 -17.3063971,17.38526 -46.292834,17.41075 -63.668654,0.11347 -17.447086,-17.36822 -17.472572,-46.45799 -0.113474,-63.89563 17.430042,-17.508913 46.6231537,-17.534399 64.122619,-0.11348 17.57073,17.49187 17.596216,46.78831 0.113474,64.3496 -17.5536877,17.63256 -46.953474,17.65804 -64.576584,0.11348 -17.694375,-17.61551 -17.719861,-47.11864 -0.113474,-64.80357 17.677333,-17.756197 47.2837934,-17.781683 65.03055,-0.11347 17.818018,17.73915 17.843504,47.44895 0.113473,65.25753 -17.8009783,17.87984 -47.614113,17.90533 -65.484515,0.11347 -17.941663,-17.8628 -17.967149,-47.77927 -0.113473,-65.7115 17.924624,-18.003481 47.94443325,-18.028967 65.93848,-0.11347 18.065308,17.98645 18.090793,48.10959 0.113474,66.16546 -18.04826989,18.12713 -48.274754,18.15262 -66.392447,0.11348 -18.188951,-18.11009 -18.214437,-48.43992 -0.113473,-66.61943 18.171915,-18.250775 48.60507409,-18.276261 66.846412,-0.11347 18.312596,18.23373 18.338082,48.77023 0.113473,67.07339 -18.29556042,18.37442 -48.935394,18.3999 -67.300377,0.11347 -18.43624,-18.35738 -18.461726,-49.10055 -0.113473,-67.52736 18.419206,-18.498059 49.26571396,-18.523545 67.754342,-0.11347 18.559885,18.48103 18.585371,49.43087 0.113473,67.98133 -18.54285093,18.6217 -49.596034,18.64719 -68.208308,0.11347 -18.683529,-18.60468 -18.709014,-49.7612 -0.113472,-68.43529 18.666496,-18.745354 49.92635386,-18.770839 68.662273,-0.11348 18.807173,18.72832 18.832659,50.09152 0.113473,68.88926 -18.79014241,18.869 -50.256675,18.89448 -69.116239,0.11347 -18.930818,-18.85196 -18.956303,-50.42183 -0.113473,-69.34322 18.913788,-18.992638 50.58699479,-19.018123 69.570205,-0.11347 19.054462,18.97561 19.079947,50.75215 0.113472,69.79719 -19.03743287,19.11628 -50.917315,19.14177 -70.02417,0.11347 -19.178106,-19.09926 -19.203592,-51.08248 -0.113472,-70.25115 19.161078,-19.239932 51.24763473,-19.265418 70.478135,-0.11348 19.301751,19.2229 19.327236,51.4128 0.113472,70.70512 -19.2847233,19.36357 -51.577955,19.38906 -70.9321,0.11347 -19.425395,-19.34654 -19.450881,-51.74311 -0.113472,-71.15908 19.408369,-19.487217 51.90827471,-19.512702 71.386066,-0.11347 19.549039,19.47019 19.574524,52.07343 0.113472,71.61305 -19.5320147,19.61086 -52.238596,19.63634 -71.840032,0.11347 -19.672684,-19.59384 -19.698169,-52.40376 -0.113472,-72.06701 19.65566,-19.734511 52.56891571,-19.759996 72.293997,-0.11348 19.796329,19.71749 19.821814,52.73408 0.113472,72.52098 -19.77930508,19.85815 -52.899236,19.88364 -72.747963,0.11347 -19.919972,-19.84112 -19.945457,-53.06439 -0.113471,-72.97494 19.90295,-19.981795 53.22955573,-20.00728 73.201928,-0.11347 20.043617,19.96477 20.069102,53.39471 0.113471,73.42891 -20.02659544,20.10544 -53.559876,20.13092 -73.655893,0.11347 -20.167262,-20.08842 -20.192746,-53.72504 -0.113471,-73.88288 20.150241,-20.22908 53.89019577,-20.254565 74.109858,-0.11347 20.290906,20.21207 20.316391,54.05536 0.113472,74.33684 -20.2738868,20.35273 -54.220517,20.37822 -74.563825,0.11348 -20.41455,-20.33571 -20.440035,-54.38568 -0.113471,-74.79081 20.397532,-20.476374 54.5508368,-20.501859 75.01779,-0.11347 20.538195,20.45935 20.563679,54.71599 0.113471,75.24477 -20.5211771,20.60002 -54.881157,20.6255 -75.471755,0.11347 -20.661839,-20.583 -20.687324,-55.04632 -0.113471,-75.69874 20.644822,-20.723658 55.2114769,-20.749143 75.925721,-0.11347 20.785483,20.70665 20.810968,55.37664 0.11347,76.15271 -20.7684674,20.8473 -55.541797,20.87279 -76.379686,0.11347 -20.909128,-20.83029 -20.934612,-55.70696 -0.11347,-76.60667 20.892113,-20.970953 55.872117,-20.996437 76.833651,-0.11347 21.032773,20.95393 21.058257,56.03727 0.113471,77.06063 -21.0157587,21.0946 -56.202438,21.12008 -77.287617,0.11347 -21.156417,-21.07758 -21.181902,-56.3676 -0.113471,-77.5146 21.139404,-21.218237 56.5327581,-21.243722 77.741583,-0.11347 21.280061,21.20123 21.305545,56.69792 0.11347,77.96857 -21.2630489,21.34188 -56.863078,21.36736 -78.195548,0.11347 -21.403706,-21.32487 -21.42919,-57.02824 -0.11347,-78.42253 21.386694,-21.465532 57.1933983,-21.491016 78.649513,-0.11347 21.52735,21.44851 21.552835,57.35855 0.11347,78.87649 -21.5103392,21.58917 -57.523718,21.61466 -79.103479,0.11347 -21.650994,-21.57216 -21.676478,-57.68888 -0.113469,-79.33046 21.633984,-21.712816 57.8540384,-21.738301 79.557444,-0.11347 21.774639,21.69581 21.800123,58.0192 0.113469,79.78443 -21.7576294,21.83646 -58.184359,21.86194 -80.011409,0.11347 -21.898284,-21.81946 -21.923768,-58.34952 -0.11347,-80.23839 21.881276,-21.960111 58.5146796,-21.985595 80.465375,-0.11347 22.021928,21.94309 22.047413,58.67983 0.11347,80.69235 -22.0049206,22.08375 -58.845,22.10924 -80.919341,0.11347 -22.145572,-22.06674 -22.171056,-59.01016 -0.113469,-81.14632 17.395172,-17.45714 44.799403,-21.828284 66.773224,-10.681651"
         sodipodi:t0="0"
         sodipodi:argument="-18.064157"
         sodipodi:radius="57.587765"
         sodipodi:revolution="89.699997"
         sodipodi:expansion="1"
         sodipodi:cy="141.54645"
         sodipodi:cx="-15.939379"
         id="path817"
         style="fill:none;fill-rule:evenodd;stroke:#414141;stroke-width:0.152;stroke-miterlimit:4;stroke-dasharray:none;stroke-opacity:1"
         sodipodi:type="spiral" />
      <circle
         r="15.83572"
         cy="141.56799"
         cx="-15.664154"
         id="path819"
         style="opacity:1;fill:url(#radialGradient851);fill-opacity:1;stroke:#313131;stroke-width:0.96100003;stroke-linecap:round;stroke-linejoin:round;stroke-miterlimit:4;stroke-dasharray:none;stroke-dashoffset:0;stroke-opacity:1;paint-order:stroke fill markers" />
      <circle
         style="opacity:1;fill:#1a1a1a;fill-opacity:1;stroke:none;stroke-width:0.35453597;stroke-linecap:round;stroke-linejoin:round;stroke-miterlimit:4;stroke-dasharray:none;stroke-dashoffset:0;stroke-opacity:1;paint-order:stroke fill markers"
         id="circle821"
         cx="-15.664154"
         cy="141.56799"
         r="1.6704351" />
      <circle
         style="opacity:1;fill:none;fill-opacity:1;stroke:#414141;stroke-width:0.461;stroke-linecap:round;stroke-linejoin:round;stroke-miterlimit:4;stroke-dasharray:none;stroke-dashoffset:0;stroke-opacity:1;paint-order:stroke fill markers"
         id="circle827"
         cx="-15.664154"
         cy="141.56799"
         r="57.452377" />
    </g>
  </g>
</svg>
